<?xml version="1.0" encoding="utf-8"?>
<!-- Generator: Adobe Illustrator 26.0.0, SVG Export Plug-In . SVG Version: 6.00 Build 0)  -->
<svg version="1.1" id="Layer_1" xmlns="http://www.w3.org/2000/svg" xmlns:xlink="http://www.w3.org/1999/xlink" x="0px" y="0px"
	 viewBox="0 0 205 206" style="enable-background:new 0 0 205 206;" xml:space="preserve">
<style type="text/css">
	.st0{fill:url(#SVGID_1_);}
	.st1{fill:url(#SVGID_00000151530758200380256660000011820165305636635551_);}
	.st2{fill:url(#SVGID_00000178891303402153925780000008263687498805415860_);}
	.st3{fill:url(#SVGID_00000116957568387340724470000000790446268246009496_);}
	.st4{fill:url(#SVGID_00000080181102099388844900000008216640146040717759_);}
	.st5{fill:url(#SVGID_00000135680480150096082600000005920076811186716092_);}
	.st6{fill:url(#SVGID_00000109729506810083678560000009529021981180145057_);}
	.st7{fill:url(#SVGID_00000060711855241362629380000017346045960566611604_);}
	.st8{fill:url(#SVGID_00000175320208177587165370000000807636162912080780_);}
	.st9{fill:url(#SVGID_00000083797766720043070000000005441704951929155235_);}
	.st10{fill:url(#SVGID_00000087386024646426758010000004018723710186788754_);}
	.st11{fill:url(#SVGID_00000138566591559035588320000000444393049207143808_);}
	.st12{fill:url(#SVGID_00000118355335308776460740000005536966649382783399_);}
	.st13{fill:url(#SVGID_00000134937001864971259120000009995606531640035749_);}
	.st14{fill:url(#SVGID_00000148623693976658301070000011556974700898738364_);}
</style>
<g>
	<g>
		<g>
			
				<radialGradient id="SVGID_1_" cx="150.6302" cy="126.2807" r="64.4955" gradientTransform="matrix(0.9999 -0.0153 0.0153 0.9999 -1.5654 1.5807)" gradientUnits="userSpaceOnUse">
				<stop  offset="0" style="stop-color:#E6E7E8"/>
				<stop  offset="1" style="stop-color:#F1F2F2"/>
			</radialGradient>
			<path class="st0" d="M194.49,66.82l0.43,28.18c0.01,0.94-0.33,1.84-0.94,2.52c-0.18,0.21-0.4,0.4-0.64,0.57l-35.41,24.73
				l35.4,23.26c0.88,0.58,1.42,1.56,1.44,2.61l0.1,6.51c0.02,1.14-0.57,2.2-1.55,2.78l-18.03,10.78c-1.05,0.63-2.36,0.6-3.38-0.07
				l-36.79-24.06l0.69,45.12c0.02,1.39-0.58,2.69-1.61,3.57c-0.19,0.16-0.4,0.32-0.62,0.45l-18.85,11.35
				c-0.33,0.2-0.68,0.36-1.03,0.46l0,0c-2.82,0.88-5.91-1.18-5.96-4.34L105.4,49.1c-0.03-2,2.16-3.24,3.86-2.2l21.82,13.39
				c1.73,1.06,2.79,2.92,2.82,4.95l0.56,36.47l54.22-37.87c1.61-1.12,3.61-0.76,4.8,0.48C194.08,64.96,194.47,65.82,194.49,66.82z"
				/>
			
				<linearGradient id="SVGID_00000111177147413293303970000012343092861489385141_" gradientUnits="userSpaceOnUse" x1="106.2259" y1="126.2807" x2="195.0344" y2="126.2807" gradientTransform="matrix(0.9999 -0.0153 0.0153 0.9999 -1.5654 1.5807)">
				<stop  offset="0" style="stop-color:#2CE97A"/>
				<stop  offset="1" style="stop-color:#D9D314"/>
			</linearGradient>
			<path style="fill:url(#SVGID_00000111177147413293303970000012343092861489385141_);" d="M194.49,66.82l0.43,28.18
				c0.01,0.94-0.33,1.84-0.94,2.52c-0.18,0.21-0.4,0.4-0.64,0.57l-35.41,24.73l35.4,23.26c0.88,0.58,1.42,1.56,1.44,2.61l0.1,6.51
				c0.02,1.14-0.57,2.2-1.55,2.78l-18.03,10.78c-1.05,0.63-2.36,0.6-3.38-0.07l-36.79-24.06l0.69,45.12
				c0.02,1.39-0.58,2.69-1.61,3.57c-0.19,0.16-0.4,0.32-0.62,0.45l-18.85,11.35c-0.33,0.2-0.68,0.36-1.03,0.46l0,0
				c-2.82,0.88-5.91-1.18-5.96-4.34L105.4,49.1c-0.03-2,2.16-3.24,3.86-2.2l21.82,13.39c1.73,1.06,2.79,2.92,2.82,4.95l0.56,36.47
				l54.22-37.87c1.61-1.12,3.61-0.76,4.8,0.48C194.08,64.96,194.47,65.82,194.49,66.82z"/>
		</g>
		<g>
			
				<radialGradient id="SVGID_00000164476096496580713980000012873341750921119668_" cx="51.2535" cy="126.6003" r="62.6661" gradientTransform="matrix(0.9999 -0.0153 0.0153 0.9999 -1.5654 1.5807)" gradientUnits="userSpaceOnUse">
				<stop  offset="0" style="stop-color:#E6E7E8"/>
				<stop  offset="1" style="stop-color:#F1F2F2"/>
			</radialGradient>
			<path style="fill:url(#SVGID_00000164476096496580713980000012873341750921119668_);" d="M35.58,127.04l0.25,16.21
				c0.05,2.98,1.67,5.73,4.26,7.2l13.05,7.45c2.37,1.35,5.25,1.48,7.73,0.33l32.29-14.93l0.88,57.43c0.03,1.81-0.72,3.37-1.87,4.45
				l-81.34-45.32l-0.81-53.18c0.75-1.75,2.09-3.22,3.84-4.13l42.88-22.44c2.62-1.37,4.27-4.07,4.28-7.03l0.06-9.65l28.92-14.95
				c0.79-0.4,1.72,0.16,1.74,1.04l0.56,36.76c0.05,2.98-1.57,5.73-4.18,7.15L40,119.48C37.24,120.98,35.53,123.89,35.58,127.04z"/>
			
				<linearGradient id="SVGID_00000008855925858965231430000012204710076847810203_" gradientUnits="userSpaceOnUse" x1="9.9656" y1="126.6003" x2="92.5414" y2="126.6003" gradientTransform="matrix(0.9999 -0.0153 0.0153 0.9999 -1.5654 1.5807)">
				<stop  offset="0" style="stop-color:#2CE97A"/>
				<stop  offset="1" style="stop-color:#D9D314"/>
			</linearGradient>
			<path style="fill:url(#SVGID_00000008855925858965231430000012204710076847810203_);" d="M35.58,127.04l0.25,16.21
				c0.05,2.98,1.67,5.73,4.26,7.2l13.05,7.45c2.37,1.35,5.25,1.48,7.73,0.33l32.29-14.93l0.88,57.43c0.03,1.81-0.72,3.37-1.87,4.45
				l-81.34-45.32l-0.81-53.18c0.75-1.75,2.09-3.22,3.84-4.13l42.88-22.44c2.62-1.37,4.27-4.07,4.28-7.03l0.06-9.65l28.92-14.95
				c0.79-0.4,1.72,0.16,1.74,1.04l0.56,36.76c0.05,2.98-1.57,5.73-4.18,7.15L40,119.48C37.24,120.98,35.53,123.89,35.58,127.04z"/>
		</g>
		<g>
			
				<radialGradient id="SVGID_00000126319708986639204320000017344981161453926037_" cx="97.7592" cy="38.1442" r="67.3832" gradientTransform="matrix(0.9999 -0.0153 0.0153 0.9999 -1.5654 1.5807)" gradientUnits="userSpaceOnUse">
				<stop  offset="0" style="stop-color:#E6E7E8"/>
				<stop  offset="1" style="stop-color:#F1F2F2"/>
			</radialGradient>
			<path style="fill:url(#SVGID_00000126319708986639204320000017344981161453926037_);" d="M182.15,44.59
				c3,1.67,2.91,6.03-0.17,7.57l-14.44,7.23c-1.82,0.91-3.98,0.9-5.79-0.05L108.66,31.7c-5.55-3-12.28-2.9-17.74,0.27L12.85,77.21
				c-1.29,0.74-2.91-0.17-2.93-1.66L9.64,57.89c-0.04-2.79,1.41-5.39,3.8-6.82l82.7-49.45c1.97-1.18,4.29-1.66,6.55-1.27
				c0.01,0,0.03,0,0.04,0.01l0.01,0L182.15,44.59z"/>
			
				<linearGradient id="SVGID_00000119103375381574900270000001400117132644676517_" gradientUnits="userSpaceOnUse" x1="10.345" y1="38.1442" x2="185.1734" y2="38.1442" gradientTransform="matrix(0.9999 -0.0153 0.0153 0.9999 -1.5654 1.5807)">
				<stop  offset="0" style="stop-color:#2CE97A"/>
				<stop  offset="1" style="stop-color:#D9D314"/>
			</linearGradient>
			<path style="fill:url(#SVGID_00000119103375381574900270000001400117132644676517_);" d="M182.15,44.59
				c3,1.67,2.91,6.03-0.17,7.57l-14.44,7.23c-1.82,0.91-3.98,0.9-5.79-0.05L108.66,31.7c-5.55-3-12.28-2.9-17.74,0.27L12.85,77.21
				c-1.29,0.74-2.91-0.17-2.93-1.66L9.64,57.89c-0.04-2.79,1.41-5.39,3.8-6.82l82.7-49.45c1.97-1.18,4.29-1.66,6.55-1.27
				c0.01,0,0.03,0,0.04,0.01l0.01,0L182.15,44.59z"/>
		</g>
	</g>
	<g>
		<g>
			
				<linearGradient id="SVGID_00000064319461485999785870000000446663281384287139_" gradientUnits="userSpaceOnUse" x1="9.6417" y1="103.0115" x2="194.9222" y2="103.0115">
				<stop  offset="0" style="stop-color:#2CE97A"/>
				<stop  offset="1" style="stop-color:#D9D314"/>
			</linearGradient>
			<path style="fill:url(#SVGID_00000064319461485999785870000000446663281384287139_);" d="M194.49,66.82l0.43,28.18
				c0.01,0.94-0.33,1.84-0.94,2.52c-0.18,0.21-0.4,0.4-0.64,0.57l-35.41,24.73l35.4,23.26c0.88,0.58,1.42,1.56,1.44,2.61l0.1,6.51
				c0.02,1.14-0.57,2.2-1.55,2.78l-18.03,10.78c-1.05,0.63-2.36,0.6-3.38-0.07l-36.79-24.06l0.69,45.12
				c0.02,1.39-0.58,2.69-1.61,3.57c-0.19,0.16-0.4,0.32-0.62,0.45l-18.85,11.35c-0.33,0.2-0.68,0.36-1.03,0.46l0,0
				c-2.82,0.88-5.91-1.18-5.96-4.34L105.4,49.1c-0.03-2,2.16-3.24,3.86-2.2l21.82,13.39c1.73,1.06,2.79,2.92,2.82,4.95l0.56,36.47
				l54.22-37.87c1.61-1.12,3.61-0.76,4.8,0.48C194.08,64.96,194.47,65.82,194.49,66.82z"/>
			
				<linearGradient id="SVGID_00000041975495594868014740000005859455880783071163_" gradientUnits="userSpaceOnUse" x1="9.6417" y1="103.0115" x2="194.9222" y2="103.0115">
				<stop  offset="0" style="stop-color:#2CE97A"/>
				<stop  offset="1" style="stop-color:#D9D314"/>
			</linearGradient>
			<path style="fill:url(#SVGID_00000041975495594868014740000005859455880783071163_);" d="M194.49,66.82l0.43,28.18
				c0.01,0.94-0.33,1.84-0.94,2.52c-0.18,0.21-0.4,0.4-0.64,0.57l-35.41,24.73l35.4,23.26c0.88,0.58,1.42,1.56,1.44,2.61l0.1,6.51
				c0.02,1.14-0.57,2.2-1.55,2.78l-18.03,10.78c-1.05,0.63-2.36,0.6-3.38-0.07l-36.79-24.06l0.69,45.12
				c0.02,1.39-0.58,2.69-1.61,3.57c-0.19,0.16-0.4,0.32-0.62,0.45l-18.85,11.35c-0.33,0.2-0.68,0.36-1.03,0.46l0,0
				c-2.82,0.88-5.91-1.18-5.96-4.34L105.4,49.1c-0.03-2,2.16-3.24,3.86-2.2l21.82,13.39c1.73,1.06,2.79,2.92,2.82,4.95l0.56,36.47
				l54.22-37.87c1.61-1.12,3.61-0.76,4.8,0.48C194.08,64.96,194.47,65.82,194.49,66.82z"/>
			
				<linearGradient id="SVGID_00000116927969054700842280000017475988102722779783_" gradientUnits="userSpaceOnUse" x1="9.6417" y1="103.0115" x2="194.9222" y2="103.0115">
				<stop  offset="0" style="stop-color:#2CE97A"/>
				<stop  offset="1" style="stop-color:#D9D314"/>
			</linearGradient>
			<path style="fill:url(#SVGID_00000116927969054700842280000017475988102722779783_);" d="M194.49,66.82l0.43,28.18
				c0.01,0.94-0.33,1.84-0.94,2.52c-0.18,0.21-0.4,0.4-0.64,0.57l-35.41,24.73l35.4,23.26c0.88,0.58,1.42,1.56,1.44,2.61l0.1,6.51
				c0.02,1.14-0.57,2.2-1.55,2.78l-18.03,10.78c-1.05,0.63-2.36,0.6-3.38-0.07l-36.79-24.06l0.69,45.12
				c0.02,1.39-0.58,2.69-1.61,3.57c-0.19,0.16-0.4,0.32-0.62,0.45l-18.85,11.35c-0.33,0.2-0.68,0.36-1.03,0.46l0,0
				c-2.82,0.88-5.91-1.18-5.96-4.34L105.4,49.1c-0.03-2,2.16-3.24,3.86-2.2l21.82,13.39c1.73,1.06,2.79,2.92,2.82,4.95l0.56,36.47
				l54.22-37.87c1.61-1.12,3.61-0.76,4.8,0.48C194.08,64.96,194.47,65.82,194.49,66.82z"/>
		</g>
		<g>
			
				<linearGradient id="SVGID_00000101065845471698190040000001988768531342991272_" gradientUnits="userSpaceOnUse" x1="9.6417" y1="103.0115" x2="194.9222" y2="103.0115">
				<stop  offset="0" style="stop-color:#2CE97A"/>
				<stop  offset="1" style="stop-color:#D9D314"/>
			</linearGradient>
			<path style="fill:url(#SVGID_00000101065845471698190040000001988768531342991272_);" d="M35.58,127.04l0.25,16.21
				c0.05,2.98,1.67,5.73,4.26,7.2l13.05,7.45c2.37,1.35,5.25,1.48,7.73,0.33l32.29-14.93l0.88,57.43c0.03,1.81-0.72,3.37-1.87,4.45
				l-81.34-45.32l-0.81-53.18c0.75-1.75,2.09-3.22,3.84-4.13l42.88-22.44c2.62-1.37,4.27-4.07,4.28-7.03l0.06-9.65l28.92-14.95
				c0.79-0.4,1.72,0.16,1.74,1.04l0.56,36.76c0.05,2.98-1.57,5.73-4.18,7.15L40,119.48C37.24,120.98,35.53,123.89,35.58,127.04z"/>
			
				<linearGradient id="SVGID_00000093869206182554650020000018250420367448715179_" gradientUnits="userSpaceOnUse" x1="9.6417" y1="103.0115" x2="194.9222" y2="103.0115">
				<stop  offset="0" style="stop-color:#2CE97A"/>
				<stop  offset="1" style="stop-color:#D9D314"/>
			</linearGradient>
			<path style="fill:url(#SVGID_00000093869206182554650020000018250420367448715179_);" d="M35.58,127.04l0.25,16.21
				c0.05,2.98,1.67,5.73,4.26,7.2l13.05,7.45c2.37,1.35,5.25,1.48,7.73,0.33l32.29-14.93l0.88,57.43c0.03,1.81-0.72,3.37-1.87,4.45
				l-81.34-45.32l-0.81-53.18c0.75-1.75,2.09-3.22,3.84-4.13l42.88-22.44c2.62-1.37,4.27-4.07,4.28-7.03l0.06-9.65l28.92-14.95
				c0.79-0.4,1.72,0.16,1.74,1.04l0.56,36.76c0.05,2.98-1.57,5.73-4.18,7.15L40,119.48C37.24,120.98,35.53,123.89,35.58,127.04z"/>
			
				<linearGradient id="SVGID_00000013152118686161284660000003622634736704740792_" gradientUnits="userSpaceOnUse" x1="9.6417" y1="103.0115" x2="194.9222" y2="103.0115">
				<stop  offset="0" style="stop-color:#2CE97A"/>
				<stop  offset="1" style="stop-color:#D9D314"/>
			</linearGradient>
			<path style="fill:url(#SVGID_00000013152118686161284660000003622634736704740792_);" d="M35.58,127.04l0.25,16.21
				c0.05,2.98,1.67,5.73,4.26,7.2l13.05,7.45c2.37,1.35,5.25,1.48,7.73,0.33l32.29-14.93l0.88,57.43c0.03,1.81-0.72,3.37-1.87,4.45
				l-81.34-45.32l-0.81-53.18c0.75-1.75,2.09-3.22,3.84-4.13l42.88-22.44c2.62-1.37,4.27-4.07,4.28-7.03l0.06-9.65l28.92-14.95
				c0.79-0.4,1.72,0.16,1.74,1.04l0.56,36.76c0.05,2.98-1.57,5.73-4.18,7.15L40,119.48C37.24,120.98,35.53,123.89,35.58,127.04z"/>
		</g>
		<g>
			
				<linearGradient id="SVGID_00000154384641471542127210000015707951796843274153_" gradientUnits="userSpaceOnUse" x1="9.6417" y1="103.0115" x2="194.9222" y2="103.0115">
				<stop  offset="0" style="stop-color:#2CE97A"/>
				<stop  offset="1" style="stop-color:#D9D314"/>
			</linearGradient>
			<path style="fill:url(#SVGID_00000154384641471542127210000015707951796843274153_);" d="M182.15,44.59
				c3,1.67,2.91,6.03-0.17,7.57l-14.44,7.23c-1.82,0.91-3.98,0.9-5.79-0.05L108.66,31.7c-5.55-3-12.28-2.9-17.74,0.27L12.85,77.21
				c-1.29,0.74-2.91-0.17-2.93-1.66L9.64,57.89c-0.04-2.79,1.41-5.39,3.8-6.82l82.7-49.45c1.97-1.18,4.29-1.66,6.55-1.27
				c0.01,0,0.03,0,0.04,0.01l0.01,0L182.15,44.59z"/>
			
				<linearGradient id="SVGID_00000163040340734829499650000012826092576947907725_" gradientUnits="userSpaceOnUse" x1="9.6417" y1="103.0115" x2="194.9222" y2="103.0115">
				<stop  offset="0" style="stop-color:#2CE97A"/>
				<stop  offset="1" style="stop-color:#D9D314"/>
			</linearGradient>
			<path style="fill:url(#SVGID_00000163040340734829499650000012826092576947907725_);" d="M182.15,44.59
				c3,1.67,2.91,6.03-0.17,7.57l-14.44,7.23c-1.82,0.91-3.98,0.9-5.79-0.05L108.66,31.7c-5.55-3-12.28-2.9-17.74,0.27L12.85,77.21
				c-1.29,0.74-2.91-0.17-2.93-1.66L9.64,57.89c-0.04-2.79,1.41-5.39,3.8-6.82l82.7-49.45c1.97-1.18,4.29-1.66,6.55-1.27
				c0.01,0,0.03,0,0.04,0.01l0.01,0L182.15,44.59z"/>
			
				<linearGradient id="SVGID_00000070841368311860057400000007154475625316068011_" gradientUnits="userSpaceOnUse" x1="9.6417" y1="103.0115" x2="194.9222" y2="103.0115">
				<stop  offset="0" style="stop-color:#2CE97A"/>
				<stop  offset="1" style="stop-color:#D9D314"/>
			</linearGradient>
			<path style="fill:url(#SVGID_00000070841368311860057400000007154475625316068011_);" d="M182.15,44.59
				c3,1.67,2.91,6.03-0.17,7.57l-14.44,7.23c-1.82,0.91-3.98,0.9-5.79-0.05L108.66,31.7c-5.55-3-12.28-2.9-17.74,0.27L12.85,77.21
				c-1.29,0.74-2.91-0.17-2.93-1.66L9.64,57.89c-0.04-2.79,1.41-5.39,3.8-6.82l82.7-49.45c1.97-1.18,4.29-1.66,6.55-1.27
				c0.01,0,0.03,0,0.04,0.01l0.01,0L182.15,44.59z"/>
		</g>
	</g>
</g>
</svg>
